<svg xmlns="http://www.w3.org/2000/svg" viewBox="0 0 140 29.21"><defs><style>.cls-1{fill:#fff;}</style></defs><title>MadiesLogo</title><g id="Capa_2" data-name="Capa 2"><g id="Capa_1-2" data-name="Capa 1"><polygon class="cls-1" points="32.05 6.5 37.11 2.15 27.59 2.15 20.48 20.59 13.6 2.15 1.97 2.15 6.88 6.39 3.93 24.04 0 28.61 10.73 28.61 5.25 24.04 7.67 8.77 15.98 28.61 18.67 28.61 25.2 11.72 27.17 24.34 22.82 28.61 39.07 28.61 34.99 24.6 32.05 6.5"/><path class="cls-1" d="M59.1,15.68c0-4.08-3.29-6.53-8.47-6.53a16.45,16.45,0,0,0-9.45,3L46,17l4.69-7a4.77,4.77,0,0,1,1.09,3.4V17c-6.23.57-11.22,2.54-11.22,6.92a5.26,5.26,0,0,0,5.52,5.25A6.47,6.47,0,0,0,52,25.36v3.85l10.8-3.78L59.1,22.56Zm-7.3,8.51a3.52,3.52,0,0,1-1.62.45c-1.13,0-1.93-.87-1.93-2.34a4.65,4.65,0,0,1,3.55-4.39Z"/><path class="cls-1" d="M82.72.91l-11,3.81,3.7,2.91v2a8.44,8.44,0,0,0-2.83-.45c-5.41,0-9.26,3.89-9.26,9.86,0,5.78,2.68,10,7.37,10,2.34,0,4.19-1.28,4.87-4.23v4.42l10.81-3.78-3.66-2.87Zm-7.3,22.82a3.35,3.35,0,0,1-.94.12c-2.69,0-4-2.31-4-6.77,0-4.76,1.48-6.8,2.95-6.8,1.14,0,2,.94,2,5.37Z"/><polygon class="cls-1" points="97.38 9.14 86.38 12.96 90.08 15.87 90.08 24.6 86.45 28.57 101 28.57 97.38 24.6 97.38 9.14"/><path class="cls-1" d="M93.56,8.81a4.41,4.41,0,0,0,0-8.81,4.3,4.3,0,0,0-4.39,4.38A4.38,4.38,0,0,0,93.56,8.81Z"/><path class="cls-1" d="M113.78,22.71c-4,0-5.71-2.57-6.09-5.4h12.4c-.12-5.94-4.69-8.16-8.73-8.16-5.48,0-9.41,4-9.41,9.82,0,5.67,4.12,10.05,9.6,10.05,5,0,8.23-3.62,9-10A7.93,7.93,0,0,1,113.78,22.71Zm-3-12.51c1.44,0,2,1.63,2,3.63a11.57,11.57,0,0,1-.23,2.23h-5C107.61,13.08,109,10.2,110.79,10.2Z"/><path class="cls-1" d="M133.12,16c-2.3-.72-4.34-1.59-4.34-3.56A2.53,2.53,0,0,1,131,10l5,5.81,3.7-4.3a14.31,14.31,0,0,0-8.39-2.38c-5.18,0-8.43,2.19-8.43,6,0,4.46,4.35,5.94,7.56,7,2.42.83,3.63,1.7,3.63,3.4A2.5,2.5,0,0,1,132,28.34L126.39,22l-3.81,4.3c2,1.78,5.78,2.76,9,2.76,5.07,0,8.47-2.53,8.47-6.69C140,18,136.26,17,133.12,16Z"/></g></g></svg>