<?xml version="1.0" encoding="utf-8"?>
<!-- Generator: Adobe Illustrator 22.0.0, SVG Export Plug-In . SVG Version: 6.00 Build 0)  -->
<svg version="1.1" id="Capa_1" xmlns="http://www.w3.org/2000/svg" xmlns:xlink="http://www.w3.org/1999/xlink" x="0px" y="0px"
	 viewBox="0 0 518 498" style="enable-background:new 0 0 518 498;" xml:space="preserve">
<style type="text/css">
	.st0{fill:#F8BC26;}
</style>
<title>Mountain</title>
<g id="Capa_2_1_">
	<g id="Capa_1-2">
		<path class="st0" d="M518,0c0,0.1,0,0.2,0,0.3c0,66.6-55.4,120.6-123.9,120.6h-1.9l-0.3,0.2c-2.4-0.1-4.9-0.2-7.4-0.2
			c-68.4,0-123.9,54-124,120.6c0,0,0,0,0,0c0,1.9-0.7,12.3-0.7,15.2c0,66.6-55.5,120.6-123.9,120.6h-10.6h-1.6
			C55.5,377.4,0,431.4,0,498c0,0,0,0,0,0h518V0z"/>
	</g>
</g>
</svg>
